HIERARCHY
ROOT Hips
{
	OFFSET 0.000000 83.214638 0.000000
	CHANNELS 6 Xposition Yposition Zposition Xrotation Yrotation Zrotation
	JOINT Pelvis
	{
		OFFSET 0.000000 0.000000 0.000000
		CHANNELS 3 Xrotation Yrotation Zrotation
		JOINT LeftUpLeg
		{
			OFFSET 8.479700 -4.795502 -0.379100
			CHANNELS 3 Xrotation Yrotation Zrotation
			JOINT LeftLeg
			{
				OFFSET 0.024144 -32.555107 0.112900
				CHANNELS 3 Xrotation Yrotation Zrotation
				JOINT LeftFoot
				{
					OFFSET -0.024144 -32.638630 -3.012600
					CHANNELS 3 Xrotation Yrotation Zrotation
					JOINT LeftToeBase
					{
						OFFSET 0.970200 -13.225400 11.864200
						CHANNELS 3 Xrotation Yrotation Zrotation
						End Site
						{
							OFFSET 0.000000 12.319262 0.000000
						}
					}
					JOINT LFootTongue
					{
						OFFSET 1.142400 -1.059800 6.665200
						CHANNELS 3 Xrotation Yrotation Zrotation
						End Site
						{
							OFFSET 0.000000 12.319262 0.000000
						}
					}
				}
				JOINT LeftPantLeg
				{
					OFFSET 0.918482 -16.533964 -2.284700
					CHANNELS 3 Xrotation Yrotation Zrotation
					End Site
					{
						OFFSET 0.350399 24.744368 0.000000
					}
				}
			}
		}
		JOINT RightUpLeg
		{
			OFFSET -8.479700 -4.795502 -0.379100
			CHANNELS 3 Xrotation Yrotation Zrotation
			JOINT RightLeg
			{
				OFFSET -0.023144 -32.555092 0.112900
				CHANNELS 3 Xrotation Yrotation Zrotation
				JOINT RightFoot
				{
					OFFSET 0.023144 -32.638641 -3.012700
					CHANNELS 3 Xrotation Yrotation Zrotation
					JOINT RightToeBase
					{
						OFFSET -0.970200 -13.225400 11.864200
						CHANNELS 3 Xrotation Yrotation Zrotation
						End Site
						{
							OFFSET 0.000000 12.319244 0.000000
						}
					}
					JOINT RFootTongue
					{
						OFFSET -1.142200 -1.059800 6.665200
						CHANNELS 3 Xrotation Yrotation Zrotation
						End Site
						{
							OFFSET 0.000000 12.319243 0.000000
						}
					}
				}
				JOINT RightPantLeg
				{
					OFFSET -0.919482 -16.533978 -2.284800
					CHANNELS 3 Xrotation Yrotation Zrotation
					End Site
					{
						OFFSET -0.350400 24.744419 0.000000
					}
				}
			}
		}
	}
	JOINT Spine
	{
		OFFSET 0.000000 7.722000 1.166200
		CHANNELS 3 Xrotation Yrotation Zrotation
		JOINT Spine1
		{
			OFFSET 0.000000 12.024101 0.248800
			CHANNELS 3 Xrotation Yrotation Zrotation
			JOINT Spine2
			{
				OFFSET 0.000000 11.502998 -0.491200
				CHANNELS 3 Xrotation Yrotation Zrotation
				JOINT Neck
				{
					OFFSET 0.000000 18.430702 -3.123100
					CHANNELS 3 Xrotation Yrotation Zrotation
					JOINT Head
					{
						OFFSET 0.000000 9.051102 1.034000
						CHANNELS 3 Xrotation Yrotation Zrotation
						JOINT HairB
						{
							OFFSET 0.208400 24.786102 24.822300
							CHANNELS 3 Xrotation Yrotation Zrotation
							End Site
							{
								OFFSET 0.000000 32.263779 0.000000
							}
						}
						JOINT HairA
						{
							OFFSET -7.081100 24.428299 23.196600
							CHANNELS 3 Xrotation Yrotation Zrotation
							End Site
							{
								OFFSET 0.000000 32.263779 0.000000
							}
						}
						JOINT Hat
						{
							OFFSET 16.728800 15.048294 -15.439601
							CHANNELS 3 Xrotation Yrotation Zrotation
							End Site
							{
								OFFSET 0.000000 32.263779 0.000000
							}
						}
					}
				}
				JOINT LeftShoulder
				{
					OFFSET 6.197800 13.665199 -4.064700
					CHANNELS 3 Xrotation Yrotation Zrotation
					JOINT LeftArm
					{
						OFFSET 7.778100 -0.187103 -1.709300
						CHANNELS 3 Xrotation Yrotation Zrotation
						JOINT LeftForeArm
						{
							OFFSET 22.049376 0.000000 0.000000
							CHANNELS 3 Xrotation Yrotation Zrotation
							JOINT LeftHand
							{
								OFFSET 23.009392 0.000000 0.000000
								CHANNELS 3 Xrotation Yrotation Zrotation
								JOINT LeftHandThumb1
								{
									OFFSET 3.507191 -2.063065 3.133727
									CHANNELS 3 Xrotation Yrotation Zrotation
									JOINT LeftHandThumb2
									{
										OFFSET 3.101337 -1.790558 1.790558
										CHANNELS 3 Xrotation Yrotation Zrotation
										JOINT LeftHandThumb3
										{
											OFFSET 3.058640 -1.765907 1.765906
											CHANNELS 3 Xrotation Yrotation Zrotation
											End Site
											{
												OFFSET -0.415260 3.926476 -0.049563
											}
										}
									}
								}
								JOINT LeftHandIndex1
								{
									OFFSET 11.334419 -0.901459 3.706815
									CHANNELS 3 Xrotation Yrotation Zrotation
									JOINT LeftHandIndex2
									{
										OFFSET 3.283112 0.000000 0.000000
										CHANNELS 3 Xrotation Yrotation Zrotation
										JOINT LeftHandIndex3
										{
											OFFSET 3.323853 0.000000 0.000000
											CHANNELS 3 Xrotation Yrotation Zrotation
											End Site
											{
												OFFSET -1.135597 3.097809 0.402452
											}
										}
									}
								}
								JOINT LeftHandMiddle1
								{
									OFFSET 11.335861 0.000000 0.000000
									CHANNELS 3 Xrotation Yrotation Zrotation
									JOINT LeftHandMiddle2
									{
										OFFSET 3.410492 0.000000 0.000000
										CHANNELS 3 Xrotation Yrotation Zrotation
										JOINT LeftHandMiddle3
										{
											OFFSET 3.312172 0.000000 0.000000
											CHANNELS 3 Xrotation Yrotation Zrotation
											End Site
											{
												OFFSET -1.150200 3.080154 0.400270
											}
										}
									}
								}
								JOINT LeftHandRing1
								{
									OFFSET 11.514786 -0.013176 -3.003090
									CHANNELS 3 Xrotation Yrotation Zrotation
									JOINT LeftHandRing2
									{
										OFFSET 3.053307 0.000000 0.000000
										CHANNELS 3 Xrotation Yrotation Zrotation
										JOINT LeftHandRing3
										{
											OFFSET 3.295807 0.000000 0.000000
											CHANNELS 3 Xrotation Yrotation Zrotation
											End Site
											{
												OFFSET -1.281006 3.013344 0.375733
											}
										}
									}
								}
								JOINT LeftHandPinky1
								{
									OFFSET 10.518692 -0.960396 -5.730441
									CHANNELS 3 Xrotation Yrotation Zrotation
									JOINT LeftHandPinky2
									{
										OFFSET 2.861649 0.000000 0.000000
										CHANNELS 3 Xrotation Yrotation Zrotation
										JOINT LeftHandPinky3
										{
											OFFSET 2.863380 0.000000 0.000000
											CHANNELS 3 Xrotation Yrotation Zrotation
											End Site
											{
												OFFSET -0.843597 2.711159 0.369971
											}
										}
									}
								}
							}
							JOINT LSleeve
							{
								OFFSET 6.676277 -0.344902 -1.011730
								CHANNELS 3 Xrotation Yrotation Zrotation
								End Site
								{
									OFFSET 0.000000 14.885353 0.000000
								}
							}
						}
					}
				}
				JOINT RightShoulder
				{
					OFFSET -6.197800 13.665199 -4.064700
					CHANNELS 3 Xrotation Yrotation Zrotation
					JOINT RightArm
					{
						OFFSET -7.778100 -0.187103 -1.709300
						CHANNELS 3 Xrotation Yrotation Zrotation
						JOINT RightForeArm
						{
							OFFSET -22.049376 0.000000 0.000000
							CHANNELS 3 Xrotation Yrotation Zrotation
							JOINT RightHand
							{
								OFFSET -23.009392 0.000000 0.000000
								CHANNELS 3 Xrotation Yrotation Zrotation
								JOINT RightHandThumb1
								{
									OFFSET -3.507191 -2.063065 3.133727
									CHANNELS 3 Xrotation Yrotation Zrotation
									JOINT RightHandThumb2
									{
										OFFSET -3.101337 -1.790558 1.790558
										CHANNELS 3 Xrotation Yrotation Zrotation
										JOINT RightHandThumb3
										{
											OFFSET -3.058640 -1.765907 1.765906
											CHANNELS 3 Xrotation Yrotation Zrotation
											End Site
											{
												OFFSET 0.415260 3.926476 -0.049563
											}
										}
									}
								}
								JOINT RightHandIndex1
								{
									OFFSET -11.334419 -0.901459 3.706815
									CHANNELS 3 Xrotation Yrotation Zrotation
									JOINT RightHandIndex2
									{
										OFFSET -3.283112 0.000000 0.000000
										CHANNELS 3 Xrotation Yrotation Zrotation
										JOINT RightHandIndex3
										{
											OFFSET -3.323853 0.000000 0.000000
											CHANNELS 3 Xrotation Yrotation Zrotation
											End Site
											{
												OFFSET 1.135597 3.097809 0.402452
											}
										}
									}
								}
								JOINT RightHandMiddle1
								{
									OFFSET -11.335861 0.000000 0.000000
									CHANNELS 3 Xrotation Yrotation Zrotation
									JOINT RightHandMiddle2
									{
										OFFSET -3.410492 0.000000 0.000000
										CHANNELS 3 Xrotation Yrotation Zrotation
										JOINT RightHandMiddle3
										{
											OFFSET -3.312172 0.000000 0.000000
											CHANNELS 3 Xrotation Yrotation Zrotation
											End Site
											{
												OFFSET 1.150200 3.080154 0.400270
											}
										}
									}
								}
								JOINT RightHandRing1
								{
									OFFSET -11.514786 -0.013176 -3.003090
									CHANNELS 3 Xrotation Yrotation Zrotation
									JOINT RightHandRing2
									{
										OFFSET -3.053307 0.000000 0.000000
										CHANNELS 3 Xrotation Yrotation Zrotation
										JOINT RightHandRing3
										{
											OFFSET -3.295807 0.000000 0.000000
											CHANNELS 3 Xrotation Yrotation Zrotation
											End Site
											{
												OFFSET 1.281006 3.013344 0.375733
											}
										}
									}
								}
								JOINT RightHandPinky1
								{
									OFFSET -10.518692 -0.960396 -5.730441
									CHANNELS 3 Xrotation Yrotation Zrotation
									JOINT RightHandPinky2
									{
										OFFSET -2.861649 0.000000 0.000000
										CHANNELS 3 Xrotation Yrotation Zrotation
										JOINT RightHandPinky3
										{
											OFFSET -2.863380 0.000000 0.000000
											CHANNELS 3 Xrotation Yrotation Zrotation
											End Site
											{
												OFFSET 0.843597 2.711159 0.369971
											}
										}
									}
								}
							}
							JOINT RSleeve
							{
								OFFSET -6.676277 -0.344902 -1.011730
								CHANNELS 3 Xrotation Yrotation Zrotation
								End Site
								{
									OFFSET 0.000000 14.885353 0.000000
								}
							}
						}
					}
				}
				JOINT Backpack
				{
					OFFSET 0.000000 -2.471497 36.677502
					CHANNELS 3 Xrotation Yrotation Zrotation
					End Site
					{
						OFFSET 0.000000 20.427315 0.000000
					}
				}
				JOINT Hood
				{
					OFFSET 0.000000 18.754097 -10.431000
					CHANNELS 3 Xrotation Yrotation Zrotation
					JOINT Hood1
					{
						OFFSET 0.000000 -5.011002 -7.685901
						CHANNELS 3 Xrotation Yrotation Zrotation
						End Site
						{
							OFFSET 0.000000 9.175140 0.000000
						}
					}
				}
				JOINT LHoodieString
				{
					OFFSET 5.250500 16.397697 3.089900
					CHANNELS 3 Xrotation Yrotation Zrotation
					JOINT LHoodieString1
					{
						OFFSET 0.257700 -6.364304 3.694600
						CHANNELS 3 Xrotation Yrotation Zrotation
						JOINT LHoodieString2
						{
							OFFSET 0.000000 -9.643799 2.679100
							CHANNELS 3 Xrotation Yrotation Zrotation
							End Site
							{
								OFFSET 0.000000 10.009018 0.000000
							}
						}
					}
				}
				JOINT RHoodieString
				{
					OFFSET -5.250500 16.397697 3.089900
					CHANNELS 3 Xrotation Yrotation Zrotation
					JOINT RHoodieString1
					{
						OFFSET -0.257700 -6.364304 3.694600
						CHANNELS 3 Xrotation Yrotation Zrotation
						JOINT RHoodieString2
						{
							OFFSET 0.000000 -9.643799 2.679100
							CHANNELS 3 Xrotation Yrotation Zrotation
							End Site
							{
								OFFSET 0.000000 10.009018 0.000000
							}
						}
					}
				}
			}
			JOINT LBackpack_Strap
			{
				OFFSET 15.223200 -7.719803 -6.610900
				CHANNELS 3 Xrotation Yrotation Zrotation
				End Site
				{
					OFFSET 0.000000 16.040596 0.000000
				}
			}
			JOINT RBackpack_Strap
			{
				OFFSET -15.223000 -7.719803 -6.610900
				CHANNELS 3 Xrotation Yrotation Zrotation
				End Site
				{
					OFFSET 0.000000 16.040596 0.000000
				}
			}
		}
	}
	JOINT BoyFacialAnim_Joint
	{
		OFFSET 1.000000 -82.208099 -1.550900
		CHANNELS 3 Xrotation Yrotation Zrotation
		End Site
		{
			OFFSET 0.000000 30.012791 0.000000
		}
	}
}
MOTION
Frames: 5
Frame Time: 0.016667
-0.832299 79.675812 0.636337 5.025870 -14.003573 10.183549 0.000000 0.000000 0.000000 -27.216299 -8.850279 -13.009228 14.268381 -5.216328 -6.835428 9.326190 -27.873167 7.090247 0.000000 0.000000 -0.000000 0.000000 0.000000 0.000000 0.000001 -0.000002 0.000001 -0.053400 -15.022800 -13.158457 30.186776 6.035002 -4.778009 -4.655349 -0.773578 8.799598 -0.000001 0.000001 -0.000001 -0.000001 0.000001 -0.000001 -0.000003 -0.000001 0.000000 1.779929 4.621443 0.542698 5.177706 9.319221 2.133656 5.034874 9.321730 2.400944 -1.845152 -1.005205 -1.922206 -8.332132 -2.916353 -12.042401 -0.000000 -0.000000 -0.000000 -0.000000 -0.000000 -0.000000 -0.000000 -0.000000 -0.000000 0.683994 -0.873506 -14.226762 -18.744839 -25.288451 -72.307729 -0.000004 -68.920700 -0.000009 -36.056596 9.257042 42.116169 -10.930940 -6.748107 10.337266 -18.089416 8.879748 2.392687 -0.000001 0.000002 -0.000001 5.890368 8.200077 -88.621793 6.193175 5.841093 -93.357655 -0.000001 0.000001 -0.000005 7.765549 7.904033 -107.399486 4.299857 5.642383 -74.600801 -0.000000 -0.000000 0.000000 7.314735 8.035613 -105.794979 3.608012 5.405434 -67.422894 0.000002 0.000002 -0.000002 10.390431 6.780202 -113.877114 1.747962 4.174861 -45.422162 -0.000001 -0.000000 0.000002 -0.000001 0.000001 -0.000001 -0.133327 13.109083 18.148151 -38.704947 64.841417 69.860268 0.000008 37.971443 -0.000001 -24.338599 -7.627324 -15.970090 17.912449 17.120574 -32.483557 12.694450 -52.014226 20.210851 0.000001 0.000001 -0.000002 0.276354 -8.899017 1.740148 5.888285 -4.491853 105.344200 0.000002 0.000001 0.000002 4.166160 -8.600806 42.153199 7.050159 -3.996511 120.947132 0.000002 -0.000001 0.000003 -0.361096 -4.549281 57.044210 4.703189 -4.656954 90.567093 -0.000000 0.000000 0.000004 -5.324607 -0.292067 51.887291 3.524538 -4.517654 75.909261 0.000000 -0.000001 0.000002 0.000001 -0.000001 -0.000003 -0.000001 -0.000000 0.000001 -0.000001 -0.000000 0.000001 -0.000001 -0.000000 0.000001 -0.000001 -0.000000 0.000001 -0.000001 -0.000000 -0.000001 -0.000001 0.000000 0.000000 -0.000001 -0.000000 0.000001 -0.000001 -0.000000 -0.000001 -0.000001 0.000000 0.000000 -0.000000 -0.000000 -0.000000 -0.000000 -0.000000 -0.000000 0.000000 0.000000 0.000000 
-0.815262 79.664932 0.638311 5.079058 -14.075185 9.972791 -0.000000 -0.000001 0.000000 -27.375875 -8.643911 -12.709673 14.653566 -5.429589 -6.961917 9.203736 -27.875235 7.216790 0.000000 -0.000000 -0.000000 0.000000 -0.000000 -0.000000 -0.000001 0.000001 0.000000 0.362619 -15.104361 -12.909597 29.575392 6.177612 -4.637629 -5.018891 -0.781023 8.637240 -0.000002 0.000000 -0.000001 -0.000002 0.000000 -0.000001 0.000003 -0.000001 -0.000001 1.842056 4.719118 0.597889 5.160750 9.282536 2.112637 5.022810 9.284443 2.374297 -2.064541 -1.057514 -1.877888 -8.628698 -3.003488 -11.986658 -0.000000 -0.000000 -0.000000 -0.000000 -0.000000 -0.000000 -0.000000 -0.000000 -0.000000 0.681854 -0.881333 -14.238710 -18.870674 -25.494067 -72.321827 -0.000009 -68.978026 -0.000022 -35.909726 8.762836 42.291821 -10.930940 -6.748107 10.337262 -18.089409 8.879748 2.392690 0.000001 0.000005 -0.000004 5.684067 8.194844 -88.397039 6.193775 5.841061 -93.363707 0.000001 -0.000001 -0.000002 7.765559 7.904043 -107.399486 4.299863 5.642378 -74.600801 -0.000002 0.000002 -0.000001 7.314750 8.035625 -105.794979 3.608008 5.405423 -67.422915 -0.000001 0.000003 -0.000000 10.390435 6.780210 -113.877121 1.747967 4.174854 -45.422162 -0.000002 0.000000 0.000002 0.000000 0.000000 -0.000001 -0.124891 13.084223 18.116892 -38.677964 64.587689 69.785054 -0.000015 38.471587 0.000013 -23.446960 -7.328093 -15.998979 17.912420 17.120588 -32.483553 12.694449 -52.014220 20.210854 0.000000 -0.000004 0.000001 0.276368 -8.899008 1.740168 5.888288 -4.491855 105.344200 -0.000001 0.000000 0.000005 4.166136 -8.600817 42.153219 7.050156 -3.996509 120.947132 -0.000001 -0.000000 -0.000000 -0.361097 -4.549277 57.044251 4.703189 -4.656955 90.567099 -0.000001 -0.000001 0.000002 -5.324611 -0.292071 51.887315 3.524536 -4.517655 75.909261 -0.000000 -0.000002 0.000003 -0.000001 0.000000 0.000000 0.000001 0.000001 0.000003 0.000001 0.000001 0.000003 0.000001 0.000001 0.000003 0.000001 0.000001 0.000003 0.000001 0.000001 0.000001 0.000000 0.000001 0.000001 0.000001 0.000001 0.000003 0.000001 0.000001 0.000001 0.000000 0.000001 0.000001 0.000000 0.000000 -0.000000 0.000000 0.000000 -0.000000 -0.000000 -0.000001 0.000000 
-0.799028 79.654930 0.638137 5.136002 -14.144461 9.759323 -0.000000 -0.000001 0.000000 -27.540701 -8.459692 -12.409421 15.025883 -5.625856 -7.082823 9.085993 -27.877863 7.335773 -0.000000 0.000000 -0.000000 -0.000000 0.000000 -0.000000 -0.000000 0.000003 0.000000 0.809802 -15.183908 -12.646088 28.911033 6.343676 -4.490702 -5.384417 -0.811815 8.466171 0.000000 0.000001 -0.000000 0.000000 0.000001 -0.000000 0.000001 -0.000000 0.000000 1.902270 4.821724 0.662705 5.142805 9.248732 2.093732 5.009905 9.249995 2.349699 -2.293333 -1.110689 -1.843281 -8.922893 -3.110394 -11.930523 -0.000000 -0.000000 -0.000000 -0.000000 -0.000000 -0.000000 -0.000000 -0.000000 -0.000000 0.679168 -0.891285 -14.251474 -19.028040 -25.737575 -72.345951 0.000005 -69.038692 -0.000004 -35.733487 8.163527 42.501586 -10.930936 -6.748091 10.337263 -18.089418 8.879749 2.392687 -0.000001 -0.000001 0.000005 5.440067 8.186737 -88.133394 6.194517 5.841013 -93.370872 -0.000001 0.000000 -0.000007 7.765545 7.904043 -107.399486 4.299864 5.642380 -74.600808 -0.000003 -0.000005 0.000003 7.314729 8.035621 -105.794993 3.608000 5.405434 -67.422894 -0.000000 0.000004 -0.000005 10.390418 6.780196 -113.877128 1.747964 4.174852 -45.422162 -0.000002 -0.000001 0.000003 -0.000001 0.000001 -0.000001 -0.114677 13.054876 18.076917 -38.651853 64.286362 69.702873 -0.000005 39.069693 0.000004 -22.411449 -6.958798 -16.094349 17.912436 17.120568 -32.483553 12.694444 -52.014216 20.210856 0.000001 -0.000002 0.000002 0.276363 -8.899008 1.740168 5.888285 -4.491853 105.344200 -0.000001 -0.000001 0.000003 4.166155 -8.600806 42.153209 7.050157 -3.996511 120.947132 -0.000001 -0.000000 -0.000000 -0.361097 -4.549274 57.044224 4.703191 -4.656953 90.567093 -0.000000 -0.000003 -0.000000 -5.324611 -0.292068 51.887304 3.524537 -4.517655 75.909254 0.000000 -0.000000 0.000000 -0.000000 -0.000000 -0.000001 0.000000 0.000000 0.000000 0.000000 0.000000 0.000000 0.000000 0.000000 0.000000 0.000000 0.000000 0.000000 0.000000 0.000000 -0.000001 -0.000000 -0.000000 0.000000 0.000000 0.000000 0.000000 0.000000 0.000000 -0.000001 -0.000000 -0.000000 0.000000 -0.000000 -0.000000 0.000000 -0.000000 -0.000000 0.000000 -0.000000 -0.000001 0.000000 
-0.783380 79.645729 0.636242 5.195727 -14.212055 9.544169 -0.000000 0.000001 -0.000000 -27.706054 -8.296348 -12.101808 15.378239 -5.807157 -7.214483 8.980845 -27.880173 7.457405 0.000000 -0.000000 -0.000000 0.000000 -0.000000 -0.000000 -0.000000 -0.000003 -0.000000 1.279690 -15.252770 -12.381610 28.204571 6.524328 -4.318177 -5.740071 -0.859429 8.282629 0.000001 0.000002 -0.000000 0.000001 0.000002 -0.000000 -0.000004 -0.000002 0.000001 1.960738 4.928707 0.735661 5.123978 9.217473 2.076672 4.996253 9.218044 2.326917 -2.529572 -1.164597 -1.816356 -9.215293 -3.233273 -11.874456 0.000000 -0.000000 -0.000000 0.000000 -0.000000 -0.000000 0.000000 -0.000000 -0.000000 0.676449 -0.901440 -14.262930 -19.187210 -25.974204 -72.374925 -0.000017 -69.092698 -0.000029 -35.558778 7.571586 42.707581 -10.930927 -6.748090 10.337258 -18.089413 8.879750 2.392681 -0.000001 0.000001 -0.000001 5.203268 8.176898 -87.878942 6.195212 5.840985 -93.377832 0.000000 -0.000000 -0.000002 7.765551 7.904037 -107.399493 4.299864 5.642374 -74.600822 -0.000003 -0.000002 0.000005 7.314735 8.035625 -105.794993 3.608027 5.405418 -67.422901 0.000002 0.000001 -0.000002 10.390429 6.780200 -113.877128 1.747960 4.174853 -45.422165 -0.000002 0.000001 -0.000000 -0.000002 0.000001 -0.000001 -0.104593 13.026399 18.035934 -38.631010 63.992869 69.627905 -0.000009 39.655382 0.000012 -21.415138 -6.603388 -16.217256 17.912427 17.120576 -32.483540 12.694446 -52.014216 20.210852 -0.000002 -0.000002 0.000003 0.276367 -8.899011 1.740167 5.888284 -4.491855 105.344193 -0.000001 0.000002 -0.000003 4.166163 -8.600808 42.153216 7.050159 -3.996507 120.947118 0.000001 -0.000000 0.000003 -0.361090 -4.549284 57.044220 4.703188 -4.656953 90.567093 -0.000001 -0.000001 0.000000 -5.324603 -0.292072 51.887304 3.524536 -4.517654 75.909261 -0.000001 -0.000001 0.000002 -0.000000 -0.000001 -0.000003 -0.000000 0.000000 0.000001 -0.000000 0.000000 0.000001 -0.000000 0.000000 0.000001 -0.000000 0.000000 0.000001 -0.000000 0.000000 -0.000001 -0.000001 0.000000 -0.000001 -0.000000 0.000000 0.000001 -0.000000 0.000000 -0.000001 -0.000001 0.000000 -0.000001 0.000000 0.000000 -0.000001 0.000000 0.000000 -0.000001 -0.000000 0.000001 -0.000000 
-0.768138 79.637085 0.633474 5.257237 -14.278589 9.327230 0.000000 0.000000 -0.000001 -27.878039 -8.150174 -11.806701 15.731054 -5.971647 -7.320795 8.868770 -27.884384 7.563030 0.000000 -0.000000 0.000000 0.000000 -0.000000 0.000000 -0.000000 0.000001 -0.000000 1.772712 -15.328381 -12.099100 27.453558 6.719608 -4.161063 -6.083133 -0.918691 8.104524 0.000001 -0.000001 0.000001 0.000001 -0.000001 0.000001 0.000003 -0.000000 -0.000000 2.017535 5.039484 0.816440 5.104400 9.188402 2.061217 4.981970 9.188255 2.305710 -2.771692 -1.219057 -1.795573 -9.506120 -3.368515 -11.818345 0.000000 0.000000 -0.000000 0.000000 0.000000 -0.000000 0.000000 0.000000 -0.000000 0.673632 -0.911968 -14.273167 -19.350583 -26.206744 -72.409718 -0.000029 -69.140222 -0.000009 -35.383710 6.979075 42.912118 -10.930914 -6.748092 10.337260 -18.089411 8.879751 2.392682 -0.000001 -0.000001 -0.000001 4.971075 8.165370 -87.630822 6.195896 5.840940 -93.384628 -0.000001 -0.000002 -0.000007 7.765551 7.904034 -107.399486 4.299856 5.642391 -74.600808 -0.000004 0.000001 -0.000003 7.314733 8.035611 -105.794993 3.608009 5.405423 -67.422915 0.000000 0.000002 -0.000004 10.390437 6.780208 -113.877121 1.747970 4.174849 -45.422165 0.000000 0.000001 -0.000000 0.000003 -0.000001 0.000000 -0.094517 12.998460 17.993314 -38.614918 63.703644 69.559316 0.000001 40.235876 0.000010 -20.444302 -6.270876 -16.344414 17.912415 17.120578 -32.483553 12.694453 -52.014223 20.210856 -0.000001 -0.000001 0.000001 0.276374 -8.899003 1.740168 5.888288 -4.491854 105.344193 -0.000001 0.000000 0.000005 4.166148 -8.600797 42.153199 7.050158 -3.996508 120.947132 -0.000000 -0.000000 0.000002 -0.361100 -4.549286 57.044224 4.703189 -4.656954 90.567093 -0.000001 -0.000001 0.000000 -5.324596 -0.292062 51.887308 3.524536 -4.517654 75.909261 -0.000000 -0.000001 0.000003 -0.000000 0.000000 -0.000002 0.000001 0.000000 0.000001 0.000001 0.000000 0.000001 0.000001 0.000000 0.000001 0.000001 0.000000 0.000001 0.000001 0.000000 0.000000 0.000001 0.000000 0.000000 0.000001 0.000000 0.000001 0.000001 0.000000 0.000000 0.000001 0.000000 0.000000 0.000001 -0.000000 -0.000000 0.000001 -0.000000 -0.000000 0.000000 0.000000 -0.000001 
